<svg width="1080" height="305" viewBox="0 0 1080 305" fill="none" xmlns="http://www.w3.org/2000/svg"><g clip-path="url(#a)" fill="#000"><path d="M129.371 47.266c0 7.88-6.391 14.27-14.275 14.27s-14.276-6.39-14.276-14.27 6.392-14.269 14.276-14.269 14.275 6.389 14.275 14.27m-72.269 59.751c0 7.88-6.391 14.269-14.276 14.269s-14.275-6.389-14.275-14.269c0-7.881 6.391-14.27 14.275-14.27s14.276 6.389 14.276 14.27M28.55 148.933c0 7.88-6.39 14.269-14.275 14.269C6.391 163.202 0 156.813 0 148.933c0-7.881 6.391-14.269 14.275-14.269s14.276 6.388 14.276 14.269m269.449 0c0 7.88-6.391 14.269-14.275 14.269s-14.276-6.389-14.276-14.269c0-7.881 6.391-14.269 14.276-14.269S298 141.052 298 148.933M57.994 191.74c0 7.88-6.391 14.269-14.275 14.269s-14.276-6.389-14.276-14.269c0-7.881 6.391-14.269 14.276-14.269s14.275 6.388 14.275 14.269m223.946-84.722c0 7.88-6.391 14.269-14.275 14.269s-14.276-6.389-14.276-14.269c0-7.881 6.392-14.27 14.276-14.27s14.275 6.389 14.275 14.27m5.353 81.155c0 7.88-6.391 14.269-14.275 14.269s-14.275-6.389-14.275-14.269c0-7.881 6.391-14.269 14.275-14.269s14.275 6.388 14.275 14.269M169.521 14.269c0 7.88-6.391 14.269-14.276 14.269S140.97 22.15 140.97 14.269C140.97 6.389 147.361 0 155.245 0s14.276 6.388 14.276 14.269m0 276.462c0 7.881-6.391 14.269-14.276 14.269s-14.275-6.388-14.275-14.269 6.391-14.269 14.275-14.269 14.276 6.388 14.276 14.269m39.257-243.465c0 7.88-6.391 14.27-14.275 14.27s-14.275-6.39-14.275-14.27 6.391-14.269 14.275-14.269 14.275 6.389 14.275 14.27m-77.622 209.575c0 7.881-6.392 14.269-14.276 14.269s-14.275-6.388-14.275-14.269c0-7.88 6.391-14.269 14.275-14.269s14.276 6.389 14.276 14.269m82.976 0c0 7.881-6.392 14.269-14.276 14.269s-14.275-6.388-14.275-14.269c0-7.88 6.391-14.269 14.275-14.269s14.276 6.389 14.276 14.269"/><path d="M109.296 52.171a5.35 5.35 0 0 1 5.354-5.35h.892a5.35 5.35 0 0 1 5.353 5.35v55.292a5.35 5.35 0 0 1-5.353 5.351h-.892a5.35 5.35 0 0 1-5.354-5.351zm79.408 0a5.35 5.35 0 0 1 5.353-5.35h.892a5.35 5.35 0 0 1 5.353 5.35v55.292a5.35 5.35 0 0 1-5.353 5.351h-.892a5.35 5.35 0 0 1-5.353-5.351zm5.353 135.556a5.35 5.35 0 0 1 5.353-5.351h.892a5.35 5.35 0 0 1 5.354 5.351v55.292a5.353 5.353 0 0 1-5.354 5.351h-.892a5.35 5.35 0 0 1-5.353-5.351zm-82.976 28.984a5.35 5.35 0 0 1 5.353-5.351h.892a5.35 5.35 0 0 1 5.354 5.351v30.321a5.353 5.353 0 0 1-5.354 5.351h-.892a5.35 5.35 0 0 1-5.353-5.351zm-21.413-25.417a5.35 5.35 0 0 1 5.353-5.351h.892a5.35 5.35 0 0 1 5.353 5.351v26.308a5.35 5.35 0 0 1-5.353 5.351h-.892a5.35 5.35 0 0 1-5.353-5.351zm31.673-42.807a5.353 5.353 0 0 1 5.354-5.351h.892a5.35 5.35 0 0 1 5.353 5.351v29.43a5.35 5.35 0 0 1-5.353 5.351h-.892a5.353 5.353 0 0 1-5.354-5.351zm28.105-120.395a5.35 5.35 0 0 1 5.353-5.35h.893a5.35 5.35 0 0 1 5.353 5.35V149.38a5.35 5.35 0 0 1-5.353 5.351h-.893a5.35 5.35 0 0 1-5.353-5.351zm0 148.933a5.35 5.35 0 0 1 5.353-5.351h.893a5.35 5.35 0 0 1 5.353 5.351v121.286a5.35 5.35 0 0 1-5.353 5.351h-.893a5.35 5.35 0 0 1-5.353-5.351z"/><path d="M56.656 112.814a5.35 5.35 0 0 1-5.354-5.351v-.891a5.35 5.35 0 0 1 5.354-5.351h58.886a5.35 5.35 0 0 1 5.353 5.351v.891a5.35 5.35 0 0 1-5.353 5.351zm137.401 0a5.35 5.35 0 0 1-5.353-5.351v-.891a5.35 5.35 0 0 1 5.353-5.351h60.671a5.35 5.35 0 0 1 5.353 5.351v.891a5.35 5.35 0 0 1-5.353 5.351zm5.353 81.155a5.35 5.35 0 0 1-5.353-5.351v-.891a5.35 5.35 0 0 1 5.353-5.351h60.671a5.35 5.35 0 0 1 5.353 5.351v.891a5.35 5.35 0 0 1-5.353 5.351zm-161.937 3.568a5.35 5.35 0 0 1-5.353-5.351v-.892a5.35 5.35 0 0 1 5.353-5.351h58.44a5.35 5.35 0 0 1 5.353 5.351v.892a5.35 5.35 0 0 1-5.353 5.351zm57.548 25.416a5.35 5.35 0 0 1-5.353-5.351v-.891a5.35 5.35 0 0 1 5.353-5.351h22.305a5.35 5.35 0 0 1 5.354 5.351v.891a5.35 5.35 0 0 1-5.354 5.351zm31.674-39.685a5.353 5.353 0 0 1-5.354-5.351v-.892a5.353 5.353 0 0 1 5.354-5.351h28.997a5.35 5.35 0 0 1 5.353 5.351v.892a5.35 5.35 0 0 1-5.353 5.351zm28.104-28.538a5.35 5.35 0 0 1-5.353-5.351v-.892a5.35 5.35 0 0 1 5.353-5.351h127.587a5.353 5.353 0 0 1 5.354 5.351v.892a5.353 5.353 0 0 1-5.354 5.351zm-140.524 0a5.35 5.35 0 0 1-5.353-5.351v-.892a5.35 5.35 0 0 1 5.353-5.351h113.312a5.35 5.35 0 0 1 5.353 5.351v.892a5.35 5.35 0 0 1-5.353 5.351zM437.88 150q0 19.04 8.68 33.32 8.68 14 22.68 21.56 14.28 7.56 30.8 7.56 14 0 24.92-3.64t19.6-9.52q8.68-6.16 15.12-13.72v46.2q-11.76 9.52-26.04 15.12-14 5.32-35.56 5.32-22.68 0-42-7.28-19.32-7.56-33.6-21-14-13.72-21.84-32.48T392.8 150t7.84-41.44 21.84-32.2q14.28-13.72 33.6-21 19.32-7.56 42-7.56 21.56 0 35.56 5.32 14.28 5.32 26.04 15.12v46.2q-6.44-7.56-15.12-13.72t-19.6-9.52q-10.92-3.64-24.92-3.64-16.52 0-30.8 7.56-14 7.56-22.68 21.56T437.88 150m176.474 31.64q6.44 10.92 13.72 19.04t16.24 12.6q8.961 4.2 19.32 4.2 11.76 0 19.04-5.88 7.56-6.16 7.56-16.24 0-8.96-4.76-14.28-4.479-5.6-13.44-9.8-8.96-4.48-22.12-9.52-7.28-2.52-16.24-7t-17.36-11.2q-8.12-7-13.44-16.8-5.32-10.08-5.32-24.36 0-16.8 8.68-28.84 8.68-12.32 23.52-19.04t33.32-6.72q18.76 0 32.48 6.44t22.96 16.24q9.24 9.52 14.28 19.88l-32.2 17.92q-3.92-7.28-9.52-12.88t-12.6-8.96q-6.72-3.36-15.4-3.36-11.48 0-17.36 5.32-5.6 5.04-5.6 12.32t4.76 12.6q5.04 5.32 14.56 10.08 9.801 4.76 24.36 9.8 9.801 3.64 18.48 8.68 8.961 5.04 15.96 12.32 7.28 7 11.2 16.52 4.2 9.52 4.2 22.12 0 14.56-5.88 26.04-5.6 11.2-15.4 18.76t-22.4 11.48q-12.32 4.2-25.48 4.2-18.48 0-34.16-6.72-15.68-7-27.16-18.48-11.48-11.76-18.2-25.48zm166.732 0q6.44 10.92 13.72 19.04t16.24 12.6q8.96 4.2 19.32 4.2 11.76 0 19.04-5.88 7.56-6.16 7.56-16.24 0-8.96-4.76-14.28-4.48-5.6-13.44-9.8-8.96-4.48-22.12-9.52-7.28-2.52-16.24-7t-17.36-11.2q-8.121-7-13.44-16.8-5.32-10.08-5.32-24.36 0-16.8 8.68-28.84 8.679-12.32 23.52-19.04t33.32-6.72q18.76 0 32.48 6.44t22.96 16.24q9.24 9.52 14.28 19.88l-32.2 17.92q-3.92-7.28-9.52-12.88-5.601-5.6-12.6-8.96-6.72-3.36-15.4-3.36-11.48 0-17.36 5.32-5.6 5.04-5.6 12.32t4.76 12.6q5.04 5.32 14.56 10.08 9.8 4.76 24.36 9.8 9.8 3.64 18.48 8.68 8.96 5.04 15.96 12.32 7.28 7 11.2 16.52 4.2 9.52 4.2 22.12 0 14.56-5.88 26.04-5.6 11.2-15.4 18.76t-22.4 11.48q-12.32 4.2-25.48 4.2-18.48 0-34.16-6.72-15.68-7-27.16-18.48-11.48-11.76-18.2-25.48zM928.497 52h41.44v129.08q0 16.24 8.68 26.32t25.763 10.08c11.38 0 19.97-3.36 25.76-10.08 5.78-6.72 8.68-15.493 8.68-26.32V52h41.16v131.6c0 11.76-1.87 22.12-5.6 31.08q-5.61 13.16-15.96 22.12c-6.91 5.787-14.94 10.173-24.08 13.16-9.15 3.173-19.14 4.76-29.96 4.76q-16.244 0-30.243-4.76-13.72-4.48-24.08-13.16-10.08-8.96-15.96-22.12-5.6-13.44-5.6-31.08z"/></g><defs><clipPath id="a"><path fill="#fff" d="M0 0h1080v305H0z"/></clipPath></defs></svg>